<?xml version="1.0" encoding="utf-8"?>
<!-- Generator: Adobe Illustrator 21.0.0, SVG Export Plug-In . SVG Version: 6.00 Build 0)  -->
<svg version="1.1" id="Layer_1" xmlns="http://www.w3.org/2000/svg" xmlns:xlink="http://www.w3.org/1999/xlink" x="0px" y="0px"
	 viewBox="0 0 640 480" style="enable-background:new 0 0 640 480;" xml:space="preserve">
<style type="text/css">
	.st0{fill:#1A1818;}
	.st1{font-family:'Montserrat-Bold';}
	.st2{font-size:133.3225px;}
</style>
<g>
	<path class="st0" d="M533.6,468H99.2c-4.6,0-8.3-3.7-8.3-8.3V25.3c0-4.6,3.7-8.3,8.3-8.3h434.3c4.6,0,8.3,3.7,8.3,8.3v434.3
		C541.9,464.3,538.2,468,533.6,468 M107.6,451.3h417.7V33.7H107.6V451.3z"/>
	<path class="st0" d="M181.4,388.6c-2.1,0-4.3-0.8-5.9-2.4c-3.3-3.3-3.3-8.5,0-11.8L451.4,98.4c3.3-3.3,8.5-3.3,11.8,0
		c3.3,3.3,3.3,8.5,0,11.8L187.3,386.1C185.7,387.7,183.5,388.6,181.4,388.6"/>
</g>
<text transform="matrix(1 0 0 1 158.959 178.938)" class="st0 st1 st2">A</text>
<text transform="matrix(1 0 0 1 391.8701 389.9902)" class="st0 st1 st2">G</text>
</svg>
