<?xml version="1.0" encoding="utf-8"?>
<!-- Generator: Adobe Illustrator 21.0.0, SVG Export Plug-In . SVG Version: 6.00 Build 0)  -->
<svg version="1.1"
	 id="svg3476" inkscape:version="0.91 r13725" sodipodi:docname="CSS3.svg" xmlns:cc="http://creativecommons.org/ns#" xmlns:dc="http://purl.org/dc/elements/1.1/" xmlns:inkscape="http://www.inkscape.org/namespaces/inkscape" xmlns:rdf="http://www.w3.org/1999/02/22-rdf-syntax-ns#" xmlns:sodipodi="http://sodipodi.sourceforge.net/DTD/sodipodi-0.dtd" xmlns:svg="http://www.w3.org/2000/svg"
	 xmlns="http://www.w3.org/2000/svg" xmlns:xlink="http://www.w3.org/1999/xlink" x="0px" y="0px" viewBox="0 0 290.2 341.6"
	 style="enable-background:new 0 0 290.2 341.6;" xml:space="preserve">
<style type="text/css">
	.st0{fill:#264DE4;}
	.st1{fill:#2965F1;}
	.st2{fill:#EBEBEB;}
	.st3{fill:#FFFFFF;}
</style>
<sodipodi:namedview  bordercolor="#666666" borderopacity="1.0" fit-margin-bottom="0" fit-margin-left="0" fit-margin-right="0" fit-margin-top="0" id="base" inkscape:current-layer="layer1" inkscape:cx="181.367" inkscape:cy="256" inkscape:document-units="px" inkscape:pageopacity="0.0" inkscape:pageshadow="2" inkscape:window-height="704" inkscape:window-maximized="1" inkscape:window-width="1366" inkscape:window-x="0" inkscape:window-y="27" inkscape:zoom="0.35" pagecolor="#ffffff" showgrid="false">
	</sodipodi:namedview>
<g id="g3013" transform="translate(119,276.3622)">
	<polygon id="polygon2989" class="st0" points="171.2,-263.9 144.8,32.3 25.9,65.2 -92.6,32.3 -119,-263.9 	"/>
	<polygon id="polygon2991" class="st1" points="122.1,13.4 144.7,-239.6 26.1,-239.6 26.1,40.1 	"/>
	<polygon id="polygon2993" class="st2" points="-58.5,-129.8 -55.2,-93.5 26.1,-93.5 26.1,-129.8 	"/>
	<polygon id="polygon2995" class="st2" points="26.1,-203.3 26,-203.3 -65,-203.3 -61.7,-167 26.1,-167 	"/>
	<polygon id="polygon2997" class="st2" points="26.1,2.4 26.1,-35.4 25.9,-35.4 -14.5,-46.3 -17.1,-75.3 -36.8,-75.3 -53.6,-75.3 
		-48.5,-18.3 25.9,2.4 	"/>
	<polygon id="polygon3005" class="st3" points="70.7,-93.5 66.5,-46.3 26,-35.4 26,2.4 100.4,-18.3 101,-24.4 109.5,-120 
		110.4,-129.8 117,-203.3 26,-203.3 26,-167 77.2,-167 73.9,-129.8 26,-129.8 26,-93.5 	"/>
</g>
</svg>
